<?xml version="1.0" standalone="no"?>
<!DOCTYPE svg PUBLIC "-//W3C//DTD SVG 20010904//EN"
 "http://www.w3.org/TR/2001/REC-SVG-20010904/DTD/svg10.dtd">
<svg version="1.0" xmlns="http://www.w3.org/2000/svg"
 width="1280.000000pt" height="1244.000000pt" viewBox="0 0 1280.000000 1244.000000"
 preserveAspectRatio="xMidYMid meet">
<g transform="translate(0.000000,1244.000000) scale(0.100000,-0.100000)"
fill="#000000" stroke="none">
<path d="M12374 12416 c-187 -44 -358 -129 -624 -307 -452 -303 -1005 -794
-1871 -1659 -804 -803 -1426 -1465 -2949 -3135 -1345 -1477 -1799 -1965 -2200
-2365 -251 -251 -447 -430 -534 -489 -37 -24 -48 -26 -180 -29 -387 -10 -868
112 -2296 578 -871 285 -1150 356 -1370 348 -95 -3 -112 -6 -173 -36 -38 -19
-79 -49 -97 -70 -31 -38 -80 -152 -80 -188 0 -87 215 -527 443 -904 686 -1136
1850 -2464 2942 -3356 530 -433 994 -706 1325 -779 130 -29 171 -29 262 -5
105 28 112 32 177 94 36 34 64 74 86 122 152 330 817 1403 2013 3249 272 419
1537 2358 2457 3765 1410 2157 2260 3484 2715 4240 141 235 340 589 340 606 0
17 -159 311 -176 325 -26 21 -106 19 -210 -5z"/>
</g>
</svg>
