<svg width="60" height="44" viewBox="0 0 60 44" fill="none" xmlns="http://www.w3.org/2000/svg">
<path d="M6.6518 43.2747C9.81868 43.2747 12.4062 40.6627 12.4062 37.466V0.0410156H46.006V37.466C46.006 40.6627 43.4185 43.2747 40.2516 43.2747" fill="#00B074"/>
<path d="M34.4972 37.4659V33.0607H0.8974V37.4659C0.8974 40.6626 3.48493 43.2747 6.6518 43.2747H40.2516C37.0847 43.2747 34.4972 40.6626 34.4972 37.4659Z" fill="#0A5239"/>
<path d="M22.718 7.48683H18.4311V9.35808H22.718V7.48683Z" fill="white"/>
<path d="M39.2089 7.48683H26.0393V9.35808H39.2089V7.48683Z" fill="#F7C604"/>
<path d="M22.718 14.1142H18.4311V15.9854H22.718V14.1142Z" fill="white"/>
<path d="M39.2089 14.1142H26.0393V15.9854H39.2089V14.1142Z" fill="#F7C604"/>
<path d="M22.718 20.7417H18.4311V22.6129H22.718V20.7417Z" fill="white"/>
<path d="M39.2089 20.7417H26.0393V22.6129H39.2089V20.7417Z" fill="#F7C604"/>
<path d="M22.718 27.369H18.4311V29.2403H22.718V27.369Z" fill="white"/>
<path d="M39.2089 27.369H26.0393V29.2403H39.2089V27.369Z" fill="#F7C604"/>
<path d="M46.006 27.681V5.42092C45.5426 5.34295 45.0405 5.30396 44.5384 5.30396C38.3978 5.30396 33.4158 10.3329 33.4158 16.5315C33.4158 22.73 38.3978 27.759 44.5384 27.759C45.0405 27.7979 45.5426 27.759 46.006 27.681Z" fill="#0C1E5B"/>
<path d="M48.4398 25.5371C54.5828 25.5371 59.5626 20.5103 59.5626 14.3094C59.5626 8.1086 54.5828 3.08182 48.4398 3.08182C42.2969 3.08182 37.317 8.1086 37.317 14.3094C37.317 20.5103 42.2969 25.5371 48.4398 25.5371Z" fill="#FF5B5B"/>
<path d="M50.4089 15.0889V8.1107H46.4696V15.0889H43.8434L48.4392 20.5077L53.0351 15.0889H50.4089Z" fill="white"/>
</svg>
