<svg width="60" height="54" viewBox="0 0 60 54" fill="none" xmlns="http://www.w3.org/2000/svg">
<path d="M29.7136 11.9521C29.1199 11.9521 28.6534 11.4818 28.6534 10.8832V8.18958C28.6534 5.28219 26.3209 2.93063 23.4795 2.93063C22.08 2.93063 20.8077 3.48645 19.7899 4.46983C18.7721 5.45322 18.2632 6.77864 18.2632 8.18958V10.8832C18.2632 11.4818 17.7967 11.9521 17.2029 11.9521C16.6092 11.9521 16.1427 11.4818 16.1427 10.8832V8.18958C16.1427 6.22282 16.9061 4.38432 18.2632 2.97339C19.6626 1.56245 21.4862 0.792847 23.437 0.792847C27.4659 0.792847 30.7314 4.08503 30.7314 8.14682V10.8404C30.7738 11.4818 30.3073 11.9521 29.7136 11.9521Z" fill="#FFD497"/>
<path d="M46.3802 47.9952H15.464L10.3325 8.0614H44.2173L46.3802 47.9952Z" fill="#00B074"/>
<path d="M15.4639 47.9952L8.1271 46.7125L0.747925 47.9952L2.9532 8.0614H13.2586L15.4639 47.9952Z" fill="#0A5239"/>
<path d="M28.9076 21.8287C24.8787 21.8287 21.6132 18.5365 21.6132 14.4747V11.7811C21.6132 11.1825 22.0797 10.7122 22.6734 10.7122C23.2672 10.7122 23.7337 11.1825 23.7337 11.7811V14.4747C23.7337 17.3821 26.0662 19.6909 28.9076 19.6909C31.749 19.6909 34.1239 17.3393 34.1239 14.4319V11.7383C34.1239 11.1397 34.5904 10.6694 35.1841 10.6694C35.7778 10.6694 36.2443 11.1397 36.2443 11.7383V14.4319C36.2443 18.5365 32.9788 21.8287 28.9076 21.8287Z" fill="white"/>
<path opacity="0.1" d="M30.8162 42.5224C30.8162 44.4892 31.3251 46.3704 32.2157 47.9952H46.4227L45.5322 31.577C44.4719 31.2349 43.3693 31.0639 42.2242 31.0639C35.9053 31.0639 30.8162 36.1946 30.8162 42.5224Z" fill="#0C1E5B"/>
<path d="M48.119 53.9809C54.396 53.9809 59.4846 48.8508 59.4846 42.5224C59.4846 36.1941 54.396 31.0639 48.119 31.0639C41.8419 31.0639 36.7534 36.1941 36.7534 42.5224C36.7534 48.8508 41.8419 53.9809 48.119 53.9809Z" fill="#FF6966"/>
<path d="M46.9314 46.9691C46.5922 46.9691 46.2953 46.8409 46.0408 46.5843L42.4361 42.9501C41.9272 42.437 41.9272 41.6247 42.4361 41.1544C42.945 40.6413 43.7507 40.6413 44.2172 41.1544L46.9314 43.8907L52.0205 38.76C52.5294 38.247 53.3352 38.247 53.8017 38.76C54.3106 39.2731 54.3106 40.0855 53.8017 40.5558L47.822 46.5843C47.5676 46.8409 47.2283 46.9691 46.9314 46.9691Z" fill="white"/>
</svg>
