<svg width="60" height="44" viewBox="0 0 60 44" fill="none" xmlns="http://www.w3.org/2000/svg">
<path d="M6.65186 43.2747C9.81873 43.2747 12.4063 40.6627 12.4063 37.466V0.0410156H46.0061V37.466C46.0061 40.6627 43.4185 43.2747 40.2516 43.2747" fill="#00B074"/>
<path d="M34.4972 37.4659V33.0607H0.89743V37.4659C0.89743 40.6626 3.485 43.2746 6.65188 43.2746H40.2517C37.0848 43.2746 34.4972 40.6626 34.4972 37.4659Z" fill="#0A5239"/>
<path d="M22.718 7.48682H18.4312V9.35807H22.718V7.48682Z" fill="#F7C604"/>
<path d="M39.2088 7.48682H26.0393V9.35807H39.2088V7.48682Z" fill="#F3F2F7"/>
<path d="M22.718 14.1141H18.4312V15.9854H22.718V14.1141Z" fill="#F7C604"/>
<path d="M39.2088 14.1141H26.0393V15.9854H39.2088V14.1141Z" fill="#F3F2F7"/>
<path d="M22.718 20.7417H18.4312V22.6129H22.718V20.7417Z" fill="#F7C604"/>
<path d="M39.2088 20.7417H26.0393V22.6129H39.2088V20.7417Z" fill="#F3F2F7"/>
<path d="M22.718 27.369H18.4312V29.2403H22.718V27.369Z" fill="#F7C604"/>
<path d="M39.2088 27.369H26.0393V29.2403H39.2088V27.369Z" fill="#F3F2F7"/>
<path opacity="0.1" d="M46.0061 27.681V5.42091C45.5427 5.34294 45.0406 5.30396 44.5385 5.30396C38.3979 5.30396 33.4159 10.3329 33.4159 16.5315C33.4159 22.73 38.3979 27.7589 44.5385 27.7589C45.0406 27.7979 45.5427 27.759 46.0061 27.681Z" fill="#0C1E5B"/>
<path d="M48.4399 25.5371C54.5828 25.5371 59.5627 20.5103 59.5627 14.3095C59.5627 8.10862 54.5828 3.08185 48.4399 3.08185C42.2969 3.08185 37.3171 8.10862 37.3171 14.3095C37.3171 20.5103 42.2969 25.5371 48.4399 25.5371Z" fill="#FF5B5B"/>
<path d="M52.8063 9.73077L43.7267 18.8846M43.7267 9.73077L52.8063 18.8846" stroke="white" stroke-width="4"/>
<path d="M52.8063 9.73077L43.7267 18.8846M43.7267 9.73077L52.8063 18.8846" stroke="white" stroke-width="4"/>
</svg>
